<?xml version="1.0" encoding="UTF-8"?>
<svg width="32" height="48" viewBox="0 0 32 48" xmlns="http://www.w3.org/2000/svg">
  <!-- 帽子 -->
  <ellipse cx="16" cy="8" rx="14" ry="6" fill="#CC0000"/>
  <!-- 帽子帽檐 -->
  <ellipse cx="16" cy="12" rx="16" ry="3" fill="#990000"/>
  
  <!-- 脸部 -->
  <ellipse cx="16" cy="18" rx="12" ry="8" fill="#FFDBAC"/>
  
  <!-- 眼睛 -->
  <circle cx="12" cy="16" r="2" fill="#000000"/>
  <circle cx="20" cy="16" r="2" fill="#000000"/>
  <circle cx="12.5" cy="15.5" r="0.5" fill="#FFFFFF"/>
  <circle cx="20.5" cy="15.5" r="0.5" fill="#FFFFFF"/>
  
  <!-- 鼻子 -->
  <ellipse cx="16" cy="20" rx="1.5" ry="2" fill="#FFAA77"/>
  
  <!-- 胡子 -->
  <ellipse cx="16" cy="22" rx="6" ry="1.5" fill="#8B4513"/>
  
  <!-- 身体 -->
  <rect x="8" y="26" width="16" height="16" rx="2" fill="#0066CC"/>
  
  <!-- 纽扣 -->
  <circle cx="16" cy="30" r="1" fill="#FFD700"/>
  <circle cx="16" cy="36" r="1" fill="#FFD700"/>
  
  <!-- 手臂 -->
  <ellipse cx="6" cy="32" rx="3" ry="6" fill="#FFDBAC"/>
  <ellipse cx="26" cy="32" rx="3" ry="6" fill="#FFDBAC"/>
  
  <!-- 腿部 -->
  <rect x="10" y="42" width="4" height="6" fill="#8B4513"/>
  <rect x="18" y="42" width="4" height="6" fill="#8B4513"/>
</svg> 